HIERARCHY
ROOT Hips
{
	OFFSET	0.00	0.00	0.00
	CHANNELS 6 Xposition Yposition Zposition Zrotation Xrotation Yrotation
	JOINT Spine
	{
		OFFSET	 0.00	0.01	 0.00
		CHANNELS 3 Zrotation Xrotation Yrotation
		JOINT Spine1
		{
			OFFSET	 0.00	 2.45913012437421	 0.00
			CHANNELS 3 Zrotation Xrotation Yrotation
            JOINT Neck
            {
                OFFSET	 0.00	 2.48462964506057	 0.00
                CHANNELS 3 Zrotation Xrotation Yrotation
                JOINT Head
                {
                    OFFSET	 0.00	 0.927524780924562	 0.00
                    CHANNELS 3 Zrotation Xrotation Yrotation
                    End Site 
                    {
                        OFFSET	 0.00	 1.14999962169752	 0.00
                    }
                }
            }
			JOINT LeftShoulder
			{
				OFFSET	 0.00	 2.48462964506057	 0.00
				CHANNELS 3 Zrotation Xrotation Yrotation
				JOINT LeftUpArm
				{
					OFFSET	 0.00	 1.24881979654096	 0.00
					CHANNELS 3 Zrotation Xrotation Yrotation
					JOINT LeftForeArm
					{
						OFFSET	 0.00	2.59758046908119	 0.00
						CHANNELS 3 Zrotation Xrotation Yrotation
						JOINT LeftHand
						{
							OFFSET	 0.00	2.45542024364365	 0.00
							CHANNELS 3 Zrotation Xrotation Yrotation
							JOINT LeftHandThumb 
							{
								OFFSET	 0.00	0.00	 0.00
								CHANNELS 3 Zrotation Xrotation Yrotation
								End Site
								{
									OFFSET	 0.00	0.00	1.00000003353624
								}
							}
							JOINT L_Wrist_End 
							{
								OFFSET	 0.00	0.99999967115358	 0.00
								CHANNELS 3 Zrotation Xrotation Yrotation
								End Site 
								{
									OFFSET	 0.00	 0.00	 0.00
								}
							}
						}
					}
				}
			}
			JOINT RightShoulder
			{
				OFFSET	 0.00	 2.48462964506057	 0.00
				CHANNELS 3 Zrotation Xrotation Yrotation
				JOINT RightUpArm
				{
					OFFSET	 0.00	 1.24881979654096	 0.00
					CHANNELS 3 Zrotation Xrotation Yrotation
					JOINT RightForeArm
					{
						OFFSET	 0.00	2.59758046908119	 0.00
						CHANNELS 3 Zrotation Xrotation Yrotation
						JOINT RightHand
						{
							OFFSET	 0.00	2.45542024364365	 0.00
							CHANNELS 3 Zrotation Xrotation Yrotation
							JOINT RightHandThumb 
							{
								OFFSET	 0.00	0.00	 0.00
								CHANNELS 3 Zrotation Xrotation Yrotation
								End Site
								{
									OFFSET	 0.00	0.00	1.00000003353624
								}
							}
							JOINT R_Wrist_End 
							{
								OFFSET	 0.00	0.99999967115358	 0.00
								CHANNELS 3 Zrotation Xrotation Yrotation
								End Site 
								{
									OFFSET	 0.00	 0.00	 0.00
								}
							}
						}
					}
				}
			}
		}
	}
	JOINT LeftUpLeg
	{
		OFFSET	 1.2719394002717	 0.00	 0.00
		CHANNELS 3 Zrotation Xrotation Yrotation
		JOINT LeftLowLeg
		{
			OFFSET	 0.00	-4.3429100912261	 0.00
			CHANNELS 3 Zrotation Xrotation Yrotation
			JOINT LeftFoot
			{
				OFFSET	 0.00	-4.48767017425826	 0.00
				CHANNELS 3 Zrotation Xrotation Yrotation
				JOINT LeftToeBase
                {
                    OFFSET	 0.00	0.00	 1.51507020887566
                    CHANNELS 3 Zrotation Xrotation Yrotation
                    End Site 
                    {
                        OFFSET	 0.00	0.00	 0.75000010571191
                    }
                }
			}
		}
	}
	JOINT RightUpLeg
	{
		OFFSET	 -1.2719393604653	 0.00	 0.00
		CHANNELS 3 Zrotation Xrotation Yrotation
		JOINT RightLowLeg
		{
			OFFSET	 0.00	-4.3429100912261	 0.00
			CHANNELS 3 Zrotation Xrotation Yrotation
			JOINT RightFoot
			{
				OFFSET	 0.00	-4.48767017425826	 0.00
				CHANNELS 3 Zrotation Xrotation Yrotation
				JOINT RightToeBase
                {
                    OFFSET	 0.00	0.00	 1.51507020887566
                    CHANNELS 3 Zrotation Xrotation Yrotation
                    End Site 
                    {
                        OFFSET	 0.00	0.00	 0.749999965609858
                    }
                }   
			}
		}
	}
}
MOTION 
Frames:	15 
Frame Time: 0.02 
  -0.6694730377197265 2.932040100097656 5.432420043945313 110.144 80.6117 239.217 12.7073 -7.26247 22.82 11.4198 17.5991 -39.7829 -17.5936 55.8353 -16.9507 94.4328 -64.2647 95.6122 -110.4954 3.97318 -8.46651 13.3843 43.4192 -39.8223 0.0 111.872 0.0 48.1789 28.7645 6.43946 0.0 0.0 0.0 0.0 0.0 0.0 111.8869 7.12593 0.94031 6.39789 56.9421 25.8916 0.0 110.926 0.0 -51.0353 35.1312 1.43387 0.0 0.0 0.0 0.0 0.0 0.0 -46.1815 -82.4053 -40.8672 0.0 113.969 0.0 -8.449 -18.9393 1.78176 0.0 -12.69644 0.0 -13.6684 -19.4425 5.60021 0.0 124.955 0.0 31.3134 6.19263 24.883 0.0 -69.1072 0.0 
  -0.7018910217285156 3.0067498779296873 5.42968994140625 114.383 79.9824 236.025 12.6879 -6.47757 22.9147 9.9069 17.9723 -40.3384 -16.4337 55.5005 -17.2597 95.4961 -62.9531 96.4977 -110.2146 4.0787 -7.45064 14.767 43.9246 -41.6055 0.0 111.417 0.0 47.6967 29.1498 6.91164 0.0 0.0 0.0 0.0 0.0 0.0 111.8921 6.88879 1.07682 4.6445 56.8119 27.9342 0.0 110.662 0.0 -50.4613 35.1973 0.856283 0.0 0.0 0.0 0.0 0.0 0.0 -54.8824 -83.1353 -49.6494 0.0 113.266 0.0 -8.37362 -18.027699 1.08527 0.0 -13.0435505 0.0 -13.7427 -20.6587 4.67624 0.0 125.512 0.0 31.6317 6.4111996 25.3872 0.0 -67.7975 0.0 
  -0.7380709838867188 3.0736898803710937 5.427150268554687 117.804 79.376 233.639 12.6589 -5.69856 23.0979 8.41284 18.3986 -40.7768 -14.4537 55.2076 -18.5577 96.614 -61.5051 97.6948 -109.867905 4.18661 -6.81495 15.9806 44.6984 -42.7554 0.0 111.168 0.0 47.0816 29.3355 8.05196 0.0 0.0 0.0 0.0 0.0 0.0 111.8736 6.83063 2.17459 4.64361 56.1023 28.3306 0.0 110.781 0.0 -49.7953 35.16 -0.460471 0.0 0.0 0.0 0.0 0.0 0.0 -63.8581 -83.6437 -58.6692 0.0 112.573 0.0 -8.3923 -17.186901 0.318519 0.0 -13.15495 0.0 -13.8174 -21.7684 3.76043 0.0 126.028 0.0 31.8189 6.79405 25.8408 0.0 -67.8687 0.0 
  -0.7770970153808594 3.133919982910156 5.422449951171875 121.118 78.8061 231.305 12.3767 -5.00768 23.089 7.64695 18.2185 -41.007 -14.0238 54.9559 -18.5871 97.3168 -60.9853 98.0467 -109.410995 4.17017 -7.21881 14.9383 45.6812 -41.9136 0.0 111.09 0.0 46.8138 29.6411 8.89464 0.0 0.0 0.0 0.0 0.0 0.0 111.9801 6.17961 1.26885 1.09282 56.3751 32.0403 0.0 110.266 0.0 -49.4753 35.2185 -0.993551 0.0 0.0 0.0 0.0 0.0 0.0 -73.7622 -84.0487 -68.6457 0.0 111.982 0.0 -8.42278 -16.3554 -0.448191 0.0 -13.09375 0.0 -13.82 -22.8482 2.8544 0.0 126.503 0.0 32.0206 7.10338 26.1972 0.0 -67.9745 0.0 
  -0.8190660095214843 3.1836199951171875 5.419730224609375 123.152 78.3839 230.151 12.0642 -4.22975 23.1158 6.89716 17.9856 -41.1894 -13.3899 55.1097 -18.9876 98.0998 -60.4284 98.6699 -109.2436 4.21997 -7.61021 14.1663 46.5885 -40.8645 0.0 111.001 0.0 46.9662 29.9003 8.64356 0.0 0.0 0.0 0.0 0.0 0.0 111.8306 6.11347 1.56917 0.218407 55.7084 32.9604 0.0 110.225 0.0 -49.0279 34.9648 -1.50275 0.0 0.0 0.0 0.0 0.0 0.0 -81.2615 -84.2878 -76.1458 0.0 111.448 0.0 -8.23404 -15.5361 -1.05156 0.0 -13.10984 0.0 -13.7528 -23.5818 2.08332 0.0 126.899 0.0 32.3854 7.38939 26.4782 0.0 -66.6407 0.0 
  -0.8605889892578125 3.2260699462890625 5.418410034179687 125.202 77.928 228.863 11.7831 -3.59741 23.2402 6.04787 17.6868 -41.2485 -12.5862 55.5327 -19.6233 98.7097 -59.8598 99.1051 -109.264404 4.35872 -6.59605 15.0283 47.0451 -41.5187 0.0 110.835 0.0 47.2452 30.1869 8.22356 0.0 0.0 0.0 0.0 0.0 0.0 112.0977 5.9498 0.502869 -2.80295 55.0325 36.0253 0.0 109.971 0.0 -49.2702 34.9856 -1.05695 0.0 0.0 0.0 0.0 0.0 0.0 -89.0976 -84.4939 -83.9315 0.0 110.961 0.0 -8.0067 -14.805401 -1.56078 0.0 -12.88983 0.0 -13.6904 -24.3269 1.35546 0.0 127.254 0.0 32.675 7.57073 26.7005 0.0 -65.2642 0.0 
  -0.9009819793701171 3.262690124511719 5.420040283203125 127.077 77.4786 227.704 11.5135 -3.19987 23.3012 5.48395 17.6883 -41.3429 -11.9734 55.5099 -20.0686 99.0235 -59.541 99.0916 -109.5563 4.42286 -5.54864 16.7457 47.3268 -42.9164 0.0 110.606 0.0 47.5558 30.6461 8.06363 0.0 0.0 0.0 0.0 0.0 0.0 111.7453 5.74321 1.20804 -2.42726 54.6639 35.7635 0.0 109.805 0.0 -49.4028 35.847 -0.762666 0.0 0.0 0.0 0.0 0.0 0.0 -96.3851 -84.5836 -91.172 0.0 110.471 0.0 -7.77765 -14.157301 -2.0521 0.0 -12.68719 0.0 -13.6192 -25.01 0.625397 0.0 127.48 0.0 32.84 7.59919 26.8813 0.0 -65.5443 0.0 
  -0.9433280181884766 3.295740051269531 5.422760009765625 128.707 76.9989 226.62 11.1894 -2.84095 23.4131 4.86644 17.7407 -41.3835 -11.1273 55.4518 -20.7737 99.2769 -59.1215 99.2558 -109.2755 4.44098 -5.73527 16.3893 47.8079 -42.3545 0.0 110.804 0.0 47.241 30.7361 8.53767 0.0 0.0 0.0 0.0 0.0 0.0 111.4215 5.65965 1.97146 -1.7187 54.1966 35.1902 0.0 109.869 0.0 -50.0091 36.7 -0.339461 0.0 0.0 0.0 0.0 0.0 0.0 -103.838 -84.7828 -98.5347 0.0 110.054 0.0 -7.60519 -13.519501 -2.62987 0.0 -12.71019 0.0 -13.4979 -25.7197 -0.00560778 0.0 127.707 0.0 33.1236 7.68301 26.8821 0.0 -64.6457 0.0 
  -0.9879399871826172 3.3274600219726564 5.425460205078125 130.234 76.4862 225.517 10.7007 -2.59985 23.4421 4.51003 17.7633 -41.4199 -10.8872 55.2401 -20.8611 99.3013 -58.9919 99.0109 -109.5122 4.33623 -4.91373 17.9719 47.8735 -43.6834 0.0 110.637 0.0 47.4458 30.9937 8.67158 0.0 0.0 0.0 0.0 0.0 0.0 111.2771 5.38442 1.88896 -2.61598 54.2135 36.1264 0.0 109.721 0.0 -50.267 37.1543 -0.678172 0.0 0.0 0.0 0.0 0.0 0.0 -112.142 -85.0098 -106.754 0.0 109.673 0.0 -7.46604 -12.920601 -3.28149 0.0 -12.8599205 0.0 -13.3287 -26.4609 -0.626823 0.0 127.924 0.0 33.4604 7.59763 26.6162 0.0 -65.714005 0.0 
  -1.0338899993896484 3.357340087890625 5.426380004882812 131.525 76.0492 224.573 9.96408 -2.37012 23.3346 4.7751 17.655 -41.4207 -11.4759 54.5633 -20.1381 99.1121 -59.3469 98.2812 -109.0109 4.27659 -6.40862 15.5924 48.3674 -41.5752 0.0 110.934 0.0 47.0782 31.174 9.01858 0.0 0.0 0.0 0.0 0.0 0.0 111.304596 4.43864 0.119517 -6.99961 55.0368 40.6203 0.0 109.18 0.0 -50.0447 37.2065 -0.734513 0.0 0.0 0.0 0.0 0.0 0.0 -120.746 -85.2319 -115.272 0.0 109.349 0.0 -7.32618 -12.385799 -3.90432 0.0 -13.00861 0.0 -13.1044 -27.1126 -1.26303 0.0 128.168 0.0 33.5434 7.24237 26.3174 0.0 -65.179596 0.0 
  -1.0808300018310546 3.3850201416015624 5.429749755859375 132.755 75.5937 223.733 9.33452 -2.0328 23.3281 4.3616 17.3607 -41.4622 -11.424 54.6578 -19.9717 99.2375 -59.1453 98.0618 -108.8657 4.27356 -6.45349 15.2931 48.5327 -41.1716 0.0 110.873 0.0 47.0389 31.3031 8.99893 0.0 0.0 0.0 0.0 0.0 0.0 111.247696 4.1252 -0.780262 -8.69251 54.8382 42.529 0.0 109.148 0.0 -49.9093 37.0684 -0.353607 0.0 0.0 0.0 0.0 0.0 0.0 -129.031 -85.329 -123.442 0.0 108.971 0.0 -7.13213 -11.914301 -4.46064 0.0 -13.2459 0.0 -12.9137 -27.7308 -1.97726 0.0 128.382 0.0 33.67 6.76283 26.0369 0.0 -62.9353 0.0 
  -1.1286699676513672 3.408380126953125 5.433140258789063 133.727 75.3292 223.201 8.65783 -1.77849 23.1931 4.23936 17.2858 -41.6148 -11.4604 54.5151 -19.6853 99.0083 -58.9788 97.6768 -109.1133 4.20783 -5.61559 16.7555 48.5375 -42.4869 0.0 110.461 0.0 47.5169 31.4335 8.47178 0.0 0.0 0.0 0.0 0.0 0.0 111.0104 4.0959 -0.874264 -9.03456 54.5683 42.9816 0.0 109.225 0.0 -50.0749 36.7238 0.101264 0.0 0.0 0.0 0.0 0.0 0.0 -135.015 -85.3783 -129.392 0.0 108.635 0.0 -7.00235 -11.4949 -4.90967 0.0 -13.92326 0.0 -12.6267 -28.13 -2.66555 0.0 128.514 0.0 34.0035 6.59204 25.7452 0.0 -64.1078 0.0 
  -1.1762100219726563 3.4271499633789064 5.434240112304687 134.629 75.1509 222.74 8.17105 -1.46571 23.1921 3.77415 17.2758 -41.7261 -10.9555 54.3817 -19.8881 98.6133 -58.5765 97.2513 -108.7223 4.27165 -6.05147 15.8133 48.9218 -41.5264 0.0 110.287 0.0 47.3992 31.5973 8.45581 0.0 0.0 0.0 0.0 0.0 0.0 110.9496 3.89318 -0.82479 -9.04922 54.2602 43.1129 0.0 109.393 0.0 -50.8179 36.4295 2.20902 0.0 0.0 0.0 0.0 0.0 0.0 -140.51 -85.429 -134.828 0.0 108.368 0.0 -6.85294 -11.213301 -5.23178 0.0 -14.894551 0.0 -12.2974 -28.4391 -3.28255 0.0 128.617 0.0 34.0236 6.40277 25.4716 0.0 -63.1136 0.0 
  -1.2223600006103517 3.442869873046875 5.434000244140625 135.732 75.0281 222.131 7.66572 -1.36665 23.1006 3.60754 17.3755 -41.8665 -10.5169 54.0842 -20.0587 98.0022 -58.2902 96.6421 -108.6253 4.42197 -5.87992 15.9346 49.0083 -41.7407 0.0 109.98 0.0 47.3062 31.8021 8.49332 0.0 0.0 0.0 0.0 0.0 0.0 110.8723 3.73674 -0.888346 -9.4051 53.9707 43.5879 0.0 109.511 0.0 -51.2213 36.0709 3.37499 0.0 0.0 0.0 0.0 0.0 0.0 -144.644 -85.4157 -139.022 0.0 108.12 0.0 -6.90292 -11.183201 -5.57641 0.0 -15.991562 0.0 -11.9139 -28.6854 -3.81268 0.0 128.653 0.0 33.9441 6.2169704 25.3197 0.0 -62.1854 0.0 
  -1.2638700103759766 3.455880126953125 5.432589721679688 137.177 74.8929 221.227 7.26224 -1.39547 22.9851 3.50718 17.4993 -42.0153 -10.0862 53.5483 -20.1766 97.3043 -58.0303 95.8852 -108.3938 4.49432 -6.3929 15.1039 49.3664 -40.99 0.0 109.767 0.0 47.3376 31.8639 8.18172 0.0 0.0 0.0 0.0 0.0 0.0 110.762 3.52676 -0.832665 -9.71866 53.7507 44.0367 0.0 109.586 0.0 -51.1189 35.8865 3.14078 0.0 0.0 0.0 0.0 0.0 0.0 -148.127 -85.272 -142.645 0.0 107.908 0.0 -6.9562 -11.269501 -5.90387 0.0 -17.64784 0.0 -11.5615 -28.9488 -4.35802 0.0 128.61 0.0 33.296 6.0498304 25.2661 0.0 -62.4312 0.0 
